<?xml version="1.0" standalone="no"?>
<!DOCTYPE svg PUBLIC "-//W3C//DTD SVG 20010904//EN"
 "http://www.w3.org/TR/2001/REC-SVG-20010904/DTD/svg10.dtd">
<svg version="1.0" xmlns="http://www.w3.org/2000/svg"
 width="100.000000pt" height="100.000000pt" viewBox="0 0 100.000000 100.000000"
 preserveAspectRatio="xMidYMid meet">

<g transform="translate(0.000000,100.000000) scale(0.100000,-0.100000)"
fill="#000000" stroke="none">
<path d="M550 990 c-106 -26 -214 -95 -320 -206 -117 -123 -182 -232 -215
-361 -20 -79 -17 -176 6 -181 13 -2 17 11 22 80 10 149 73 275 196 391 109
103 261 162 364 143 83 -16 136 -100 122 -195 -14 -94 -128 -271 -176 -271
-28 0 -24 15 22 73 56 69 79 122 79 180 0 91 -54 147 -143 147 -73 0 -131 -33
-228 -129 -70 -70 -94 -103 -129 -174 -40 -79 -44 -97 -48 -175 -5 -107 19
-180 78 -241 71 -73 203 -90 329 -42 158 60 355 255 436 434 55 118 73 287 33
295 -15 3 -18 -5 -18 -52 0 -141 -62 -278 -180 -398 -58 -59 -94 -86 -151
-113 -273 -129 -455 7 -328 245 35 65 124 170 144 170 28 0 24 -19 -15 -68
-54 -67 -80 -127 -80 -185 0 -135 115 -188 251 -116 69 37 183 152 229 231 96
166 92 352 -10 457 -60 61 -166 85 -270 61z m198 -54 c40 -21 89 -86 103 -140
6 -22 9 -73 7 -112 -5 -97 -61 -213 -150 -305 -120 -126 -236 -165 -292 -98
-47 56 -29 146 47 237 46 54 53 77 33 107 -28 42 -71 34 -125 -22 -144 -150
-191 -324 -115 -420 46 -57 95 -78 184 -77 47 1 97 9 133 21 31 11 57 18 57
16 0 -12 -105 -67 -159 -83 -148 -46 -249 -12 -307 106 -24 49 -26 62 -22 142
3 73 9 97 38 155 42 86 129 189 202 240 48 34 68 41 116 45 56 4 60 3 85 -28
48 -57 32 -142 -43 -231 -49 -58 -59 -93 -35 -119 44 -48 113 -5 194 120 55
85 78 176 63 247 -24 115 -102 170 -227 160 -39 -3 -89 -12 -110 -21 -54 -23
-55 -13 0 19 108 64 245 81 323 41z"/>
</g>
</svg>
